<svg width="46" height="46" viewBox="0 0 46 46" fill="none" xmlns="http://www.w3.org/2000/svg">
    <rect width="45.9986" height="45.9989" rx="7" fill="#5D86F0"/>
    <path d="M38.6126 8.06192C38.2646 7.70792 37.7926 7.48392 37.3326 7.33592C36.7901 7.17419 36.2313 7.07357 35.6666 7.03592C34.4266 6.93792 32.8786 7.03592 31.1626 7.38592C27.7286 8.08992 23.5266 9.82992 19.6286 13.1999C15.7306 16.5699 13.2926 20.6479 12.1126 24.0459C11.5246 25.7399 11.2326 27.3139 11.2546 28.5819C11.2646 29.2139 11.3546 29.8219 11.5626 30.3419C11.5959 30.4233 11.6332 30.5046 11.6746 30.5859C10.1014 32.8102 8.59534 35.0812 7.15856 37.3959C7.01388 37.6298 6.96575 37.9107 7.02434 38.1794C7.08293 38.4481 7.24365 38.6835 7.47256 38.8359C7.58557 38.9094 7.71218 38.9595 7.84489 38.9832C7.9776 39.0069 8.11372 39.0037 8.24518 38.9739C8.37665 38.9441 8.50079 38.8881 8.61027 38.8095C8.71975 38.7308 8.81234 38.631 8.88256 38.5159C10.2584 36.3017 11.6977 34.1274 13.1986 31.9959C13.7686 32.2779 14.4306 32.3859 15.1146 32.3599C16.1406 32.3199 17.3106 31.9839 18.5606 31.3799C21.0606 30.1699 24.0486 27.8059 27.1666 24.0959L30.2026 20.9959C30.395 20.798 30.5026 20.5329 30.5026 20.2569C30.5026 19.9809 30.395 19.7158 30.2026 19.5179L28.7446 18.0299L31.3666 18.4479C31.5275 18.4739 31.6924 18.4602 31.8468 18.4079C32.0012 18.3556 32.1405 18.2664 32.2526 18.1479L33.5786 16.7799C34.9046 15.4199 36.1626 14.1299 37.1046 12.9959C37.7326 12.2399 38.2746 11.4919 38.6126 10.7819C38.9386 10.0919 39.1686 9.23592 38.8366 8.40592C38.7865 8.277 38.7102 8.15986 38.6126 8.06192ZM14.4646 30.2399C17.7686 25.7479 21.4786 21.4299 25.6166 17.7879L28.0366 20.2559L25.6946 22.6479L25.6406 22.7079C22.6406 26.2859 19.8586 28.4419 17.6866 29.4939C16.5986 30.0199 15.7066 30.2499 15.0386 30.2739C14.8465 30.2832 14.654 30.2731 14.4646 30.2399ZM28.0026 15.7999C30.6226 13.7439 33.4026 11.9719 36.3466 10.5999C36.0964 10.9609 35.8295 11.31 35.5466 11.6459C34.6626 12.7119 33.4906 13.9139 32.1846 15.2539L31.1646 16.3019L28.0026 15.7999ZM34.6946 9.08592C26.1866 13.2939 19.0886 20.5999 13.2966 28.3559C13.3106 27.4279 13.5386 26.1839 14.0366 24.7439C15.1026 21.6739 17.3366 17.9139 20.9466 14.7919C24.5606 11.6699 28.4386 10.0719 31.5666 9.43192C32.5953 9.21407 33.6431 9.09818 34.6946 9.08592Z" fill="white"/>
    </svg>
    