<svg width="176" height="52" viewBox="0 0 176 52" fill="none" xmlns="http://www.w3.org/2000/svg">
    <rect y="3.35632" width="45.9986" height="45.9989" rx="7" fill="#5D86F0" />
    <path
        d="M38.6126 11.4182C38.2646 11.0642 37.7926 10.8402 37.3326 10.6922C36.7901 10.5305 36.2313 10.4299 35.6666 10.3922C34.4266 10.2942 32.8786 10.3922 31.1626 10.7422C27.7286 11.4462 23.5266 13.1862 19.6286 16.5562C15.7306 19.9262 13.2926 24.0042 12.1126 27.4022C11.5246 29.0962 11.2326 30.6702 11.2546 31.9382C11.2646 32.5702 11.3546 33.1782 11.5626 33.6982C11.5959 33.7796 11.6332 33.8609 11.6746 33.9422C10.1014 36.1665 8.59534 38.4375 7.15856 40.7522C7.01388 40.9861 6.96575 41.2671 7.02434 41.5357C7.08293 41.8044 7.24365 42.0398 7.47256 42.1922C7.58557 42.2657 7.71218 42.3158 7.84489 42.3395C7.9776 42.3632 8.11372 42.36 8.24518 42.3302C8.37665 42.3004 8.50079 42.2445 8.61027 42.1658C8.71975 42.0871 8.81234 41.9873 8.88256 41.8722C10.2584 39.658 11.6977 37.4838 13.1986 35.3522C13.7686 35.6342 14.4306 35.7422 15.1146 35.7162C16.1406 35.6762 17.3106 35.3402 18.5606 34.7362C21.0606 33.5262 24.0486 31.1622 27.1666 27.4522L30.2026 24.3522C30.395 24.1544 30.5026 23.8892 30.5026 23.6132C30.5026 23.3372 30.395 23.0721 30.2026 22.8742L28.7446 21.3862L31.3666 21.8042C31.5275 21.8303 31.6924 21.8165 31.8468 21.7642C32.0012 21.7119 32.1405 21.6227 32.2526 21.5042L33.5786 20.1362C34.9046 18.7762 36.1626 17.4862 37.1046 16.3522C37.7326 15.5962 38.2746 14.8482 38.6126 14.1382C38.9386 13.4482 39.1686 12.5922 38.8366 11.7622C38.7865 11.6333 38.7102 11.5162 38.6126 11.4182ZM14.4646 33.5962C17.7686 29.1042 21.4786 24.7862 25.6166 21.1442L28.0366 23.6122L25.6946 26.0042L25.6406 26.0642C22.6406 29.6422 19.8586 31.7982 17.6866 32.8502C16.5986 33.3762 15.7066 33.6062 15.0386 33.6302C14.8465 33.6395 14.654 33.6294 14.4646 33.5962ZM28.0026 19.1562C30.6226 17.1002 33.4026 15.3282 36.3466 13.9562C36.0964 14.3173 35.8295 14.6663 35.5466 15.0022C34.6626 16.0682 33.4906 17.2702 32.1846 18.6102L31.1646 19.6582L28.0026 19.1562ZM34.6946 12.4422C26.1866 16.6502 19.0886 23.9562 13.2966 31.7122C13.3106 30.7842 13.5386 29.5402 14.0366 28.1002C15.1026 25.0302 17.3366 21.2702 20.9466 18.1482C24.5606 15.0262 28.4386 13.4282 31.5666 12.7882C32.5953 12.5704 33.6431 12.4545 34.6946 12.4422Z"
        fill="white" />
    <path
        d="M64.348 42.468V13.2L69.892 13.92L68.812 42L64.348 42.468ZM82.1607 42.468V18.132H74.3847L73.3047 14.928L95.1567 13.56V18.132H87.5967L86.8767 42L82.1607 42.468ZM117.766 42.756V39.84C116.95 40.776 115.894 41.484 114.598 41.964C113.326 42.42 112.042 42.648 110.746 42.648C108.13 42.648 105.838 42.06 103.87 40.884C101.902 39.684 100.366 37.98 99.2615 35.772C98.1575 33.54 97.6055 30.9 97.6055 27.852C97.6055 24.924 98.1575 22.368 99.2615 20.184C100.366 17.976 101.902 16.272 103.87 15.072C105.838 13.848 108.118 13.236 110.71 13.236C112.222 13.236 113.65 13.416 114.994 13.776C116.338 14.112 117.526 14.568 118.558 15.144C119.614 15.72 120.406 16.38 120.934 17.124L119.926 23.28H117.55C117.406 21.984 117.142 20.952 116.758 20.184C116.398 19.416 115.99 18.84 115.534 18.456C114.958 17.952 114.238 17.592 113.374 17.376C112.534 17.136 111.562 17.016 110.458 17.016C108.994 17.016 107.662 17.412 106.462 18.204C105.286 18.996 104.35 20.196 103.654 21.804C102.958 23.412 102.61 25.428 102.61 27.852C102.61 30.06 102.994 31.968 103.762 33.576C104.53 35.184 105.562 36.42 106.858 37.284C108.154 38.148 109.594 38.58 111.178 38.58C112.33 38.58 113.422 38.316 114.454 37.788C115.51 37.236 116.374 36.444 117.046 35.412C117.718 34.356 118.054 33.096 118.054 31.632C118.054 31.512 118.054 31.38 118.054 31.236C118.054 31.092 118.042 30.948 118.018 30.804H111.322L110.602 27.708L122.41 26.34L121.69 42.036L117.766 42.756ZM142.756 22.92C142.612 21.624 142.348 20.592 141.964 19.824C141.604 19.056 141.196 18.48 140.74 18.096C140.164 17.592 139.504 17.232 138.76 17.016C138.04 16.776 137.128 16.656 136.024 16.656C134.488 16.656 133.324 17.088 132.532 17.952C131.74 18.792 131.344 19.788 131.344 20.94C131.344 21.684 131.716 22.392 132.46 23.064C133.228 23.712 134.236 24.24 135.484 24.648L139.804 26.052C142.036 26.772 143.764 27.732 144.988 28.932C146.236 30.132 146.86 31.812 146.86 33.972C146.86 36.708 145.96 38.844 144.16 40.38C142.384 41.892 139.84 42.648 136.528 42.648C133.72 42.648 131.38 41.988 129.508 40.668C127.66 39.348 126.376 37.596 125.656 35.412L128.32 33.648C129.016 35.256 130.072 36.54 131.488 37.5C132.928 38.436 134.608 38.904 136.528 38.904C138.16 38.904 139.48 38.484 140.488 37.644C141.496 36.78 142 35.736 142 34.512C142 33.504 141.58 32.64 140.74 31.92C139.9 31.2 138.736 30.576 137.248 30.048L133.18 28.644C130.972 27.876 129.352 26.94 128.32 25.836C127.288 24.732 126.772 23.184 126.772 21.192C126.772 19.728 127.144 18.396 127.888 17.196C128.632 15.996 129.712 15.036 131.128 14.316C132.568 13.596 134.284 13.236 136.276 13.236C138.532 13.236 140.536 13.608 142.288 14.352C144.04 15.096 145.324 16.02 146.14 17.124L145.132 22.92H142.756ZM169.837 42.468L167.929 36.708H155.617L153.097 42.468L149.353 42L159.721 13.2L165.301 14.568L164.545 16.26L175.345 41.964L169.837 42.468ZM162.637 20.652L157.021 33.468L166.525 32.424L162.637 20.652Z"
        fill="black" />
</svg>
    